<svg xmlns="http://www.w3.org/2000/svg" width="156" height="32" viewBox="0 0 156 32" fill="none">
<path d="M0 15.0118V30.0202H3.77423H7.54846L7.55555 22.7446L7.56618 15.469L17.078 23.2939C22.3087 27.5962 26.611 31.1188 26.6393 31.1188C26.6783 31.1188 26.6854 28.6806 26.6854 16.1459V1.173H22.9112H19.1369L19.1299 8.38479L19.1192 15.6001L9.90514 8.08002C4.83739 3.94431 0.535126 0.435875 0.3473 0.279943L0 -2.28882e-05V15.0118Z" fill="#f44336"/>
<path d="M31.3987 15.5966V30.0201H35.3324H39.2661V24.7043V19.3885H45.1844H51.1026V16.0573V12.726L45.195 12.7189L39.2838 12.7083L39.2732 10.4827L39.2661 8.26073H45.7691H52.2721V4.71685V1.17297H41.8354H31.3987V15.5966Z" fill="#f44336"/>
<path d="M53.4417 4.73457V8.29617H57.3399H61.2382V19.1582V30.0201H65.1719H69.1056V19.1582V8.29617H72.9153H76.7249V4.73457V1.17297H65.0833H53.4417V4.73457Z" fill="#f44336"/>
<path d="M80.127 15.5966V30.0201H82.714H85.301V24.9701V19.9201H88.5047C90.4396 19.9201 91.8536 19.9059 92.0734 19.8846C94.1926 19.672 95.9362 18.8782 97.5876 17.372C99.2178 15.8836 100.153 14.101 100.476 11.8578C100.54 11.4254 100.536 9.66765 100.472 9.21757C100.122 6.70496 99.0796 4.86923 97.1199 3.28866C95.8015 2.2255 94.3804 1.58406 92.6687 1.2722L92.2293 1.19069L86.1799 1.18006L80.127 1.17297V15.5966ZM91.9919 5.96784C93.7638 6.43209 94.9545 7.70434 95.3196 9.5188C95.4117 9.98305 95.4117 11.1632 95.316 11.6097C95.1176 12.5595 94.7242 13.3072 94.0934 13.9345C93.3988 14.6255 92.5731 15.0402 91.5737 15.189C91.3008 15.2315 90.6735 15.2422 88.2708 15.2422H85.301V10.5465V5.84735L88.4657 5.85798L91.6268 5.87215L91.9919 5.96784Z" fill="#f44336"/>
<path d="M145.866 5.15983V9.1467H144.52H143.173V11.4148V13.6829H144.52H145.866V21.8515V30.0201H148.347H150.828V21.8515V13.6829H153.096H155.364V11.4148V9.1467H153.096H150.828V5.15983V1.17297H148.347H145.866V5.15983Z" fill="#f44336"/>
<path d="M112.465 8.56547C112.408 8.57256 112.185 8.59736 111.969 8.61863C110.232 8.79227 108.492 9.416 107.025 10.3906C106.323 10.8619 105.824 11.2694 105.218 11.8755C103.758 13.3284 102.836 14.9374 102.361 16.8546C101.738 19.3743 102.032 22.2696 103.137 24.4739C104.275 26.7456 106.373 28.7231 108.708 29.7189C110.771 30.6013 113.227 30.8742 115.566 30.4808C117.866 30.091 119.843 29.081 121.551 27.4189C122.529 26.4621 123.21 25.53 123.773 24.3676C124.234 23.4143 124.542 22.3937 124.712 21.2667C124.787 20.7741 124.798 20.5969 124.798 19.5834C124.794 18.5876 124.783 18.3856 124.716 17.9355C124.394 15.8623 123.671 14.225 122.398 12.6835C122.076 12.2936 121.261 11.4785 120.864 11.149C119.17 9.74203 117.334 8.94466 115.07 8.62926C114.683 8.5761 112.738 8.52648 112.465 8.56547ZM114.095 13.0804C115.729 13.2363 117.012 13.8742 118.167 15.1075C118.635 15.6036 118.922 16.0182 119.216 16.6065C119.684 17.5492 119.889 18.4493 119.889 19.5798C119.889 21.1533 119.464 22.4646 118.564 23.6588C118.316 23.992 117.621 24.6937 117.32 24.9205C117.008 25.1579 116.214 25.6222 116.016 25.6859C116.002 25.693 115.938 25.7178 115.871 25.7462C115.722 25.8064 115.197 25.9659 115.052 25.9943C114.995 26.0049 114.889 26.0226 114.822 26.0297C114.754 26.0403 114.641 26.0651 114.573 26.0864C114.495 26.1112 114.081 26.1183 113.439 26.1112C112.514 26.097 112.394 26.0864 112.001 26.0049C110.087 25.5903 108.613 24.4775 107.737 22.7871C107.386 22.1137 107.192 21.5361 107.053 20.7706C106.979 20.3418 106.99 18.7577 107.075 18.3076C107.355 16.7802 108.152 15.43 109.364 14.427C110.601 13.4029 112.32 12.9138 114.095 13.0804Z" fill="#f44336"/>
<path d="M138.938 8.76041C137.527 8.82775 136.216 9.24593 135.153 9.97242C134.497 10.4189 133.774 11.2234 133.423 11.8932L133.267 12.1909L133.25 10.6777L133.232 9.16442H130.769H128.306L128.295 19.5905L128.288 30.0201H130.769H133.246L133.26 24.0593C133.271 18.7045 133.278 18.0666 133.331 17.8186C133.601 16.5286 134.04 15.6781 134.83 14.9197C135.004 14.7531 135.266 14.5369 135.412 14.4377C136.01 14.0337 136.808 13.7183 137.573 13.5765C138.356 13.4312 139.615 13.4454 140.579 13.6049L140.94 13.6687V11.2695V8.87028L140.858 8.84901C140.532 8.7675 139.664 8.72852 138.938 8.76041Z" fill="#f44336"/>
</svg>